<?xml version="1.0" encoding="UTF-8" standalone="no"?>
<!DOCTYPE svg PUBLIC "-//W3C//DTD SVG 1.1//EN"
 "http://www.w3.org/Graphics/SVG/1.1/DTD/svg11.dtd">
<!-- Generated by graphviz version 8.1.0 (20230707.0739)
 -->
<!-- Title: ComponentsMainFunctionality Pages: 1 -->
<svg width="1111pt" height="348pt"
 viewBox="0.00 0.00 1110.98 347.86" xmlns="http://www.w3.org/2000/svg" xmlns:xlink="http://www.w3.org/1999/xlink">
<g id="graph0" class="graph" transform="scale(1 1) rotate(0) translate(4 343.86)">
<title>ComponentsMainFunctionality</title>
<polygon fill="white" stroke="none" points="-4,4 -4,-343.86 1106.98,-343.86 1106.98,4 -4,4"/>
<!-- MobileApp -->
<g id="node1" class="node">
<title>MobileApp</title>
<polygon fill="none" stroke="black" points="595.39,-302.07 599.56,-302.18 603.68,-302.33 607.74,-302.54 611.72,-302.79 615.62,-303.1 619.4,-303.46 623.06,-303.86 626.59,-304.31 629.96,-304.8 633.18,-305.34 636.22,-305.93 639.08,-306.55 641.75,-307.21 644.22,-307.91 646.48,-308.65 648.52,-309.42 650.36,-310.22 651.97,-311.05 653.36,-311.91 654.53,-312.79 655.47,-313.7 656.19,-314.62 656.7,-315.57 656.99,-316.52 657.07,-317.49 656.94,-318.47 656.61,-319.46 656.09,-320.45 655.38,-321.44 654.49,-322.43 653.43,-323.41 652.21,-324.39 650.84,-325.36 649.32,-326.32 647.67,-327.26 645.89,-328.19 644,-329.09 642,-329.97 639.9,-330.83 637.71,-331.66 635.44,-332.47 633.1,-333.24 630.69,-333.97 628.22,-334.67 625.7,-335.34 623.14,-335.96 620.53,-336.54 617.89,-337.08 615.23,-337.58 612.53,-338.03 609.82,-338.43 607.09,-338.79 604.35,-339.09 601.59,-339.35 598.82,-339.55 596.05,-339.71 593.28,-339.81 590.5,-339.86 587.72,-339.86 584.94,-339.81 582.16,-339.71 579.39,-339.55 576.62,-339.35 573.87,-339.09 571.12,-338.79 568.39,-338.43 565.68,-338.03 562.98,-337.58 560.32,-337.08 557.68,-336.54 555.07,-335.96 552.51,-335.34 549.99,-334.67 547.52,-333.97 545.12,-333.24 542.77,-332.47 540.5,-331.66 538.31,-330.83 536.21,-329.97 534.21,-329.09 532.32,-328.19 530.54,-327.26 528.89,-326.32 527.37,-325.36 526,-324.39 524.78,-323.41 523.72,-322.43 522.83,-321.44 522.12,-320.45 521.6,-319.46 521.27,-318.47 521.14,-317.49 521.22,-316.52 521.51,-315.57 522.02,-314.62 522.74,-313.7 523.68,-312.79 524.85,-311.91 526.24,-311.05 527.85,-310.22 529.69,-309.42 531.74,-308.65 534,-307.91 536.46,-307.21 539.13,-306.55 541.99,-305.93 545.03,-305.34 548.25,-304.8 551.62,-304.31 555.15,-303.86 558.81,-303.46 562.59,-303.1 566.49,-302.79 570.47,-302.54 574.53,-302.33 578.65,-302.18 582.82,-302.07 587.01,-302.02 591.2,-302.02 595.39,-302.07"/>
<text text-anchor="middle" x="589.11" y="-315.12" font-family="Times,serif" font-size="16.00">MobileApp</text>
</g>
<!-- MediaAssetStorage -->
<g id="node6" class="node">
<title>MediaAssetStorage</title>
<polygon fill="none" stroke="black" points="228.21,-120.39 171.16,-142.23 57.05,-142.23 0,-120.39 57.05,-98.55 171.16,-98.55 228.21,-120.39"/>
<text text-anchor="middle" x="114.11" y="-114.57" font-family="Times,serif" font-size="16.00">MediaAssetStorage</text>
</g>
<!-- MobileApp&#45;&gt;MediaAssetStorage -->
<g id="edge4" class="edge">
<title>MobileApp&#45;&gt;MediaAssetStorage</title>
<path fill="none" stroke="black" stroke-dasharray="5,2" d="M520.88,-318.14C410.66,-313.84 200.22,-299.45 145.36,-251.77 117.47,-227.54 112.15,-183.23 112.13,-153.06"/>
<polygon fill="black" stroke="black" points="115.65,-153.33 112.35,-143.26 108.65,-153.19 115.65,-153.33"/>
<text text-anchor="middle" x="189.98" y="-229.5" font-family="Times,serif" font-size="12.00">fetch static content</text>
</g>
<!-- SubmissionAPI -->
<g id="node7" class="node">
<title>SubmissionAPI</title>
<polygon fill="#f2f2f2" stroke="black" points="701.23,-251.77 610.98,-251.77 610.98,-215.77 701.23,-215.77 701.23,-251.77"/>
<text text-anchor="middle" x="656.11" y="-229.5" font-family="Times,serif" font-size="12.00">SubmissionAPI</text>
</g>
<!-- MobileApp&#45;&gt;SubmissionAPI -->
<g id="edge1" class="edge">
<title>MobileApp&#45;&gt;SubmissionAPI</title>
<path fill="none" stroke="black" d="M617.34,-302.9C624.51,-297.55 631.7,-291.16 637.11,-284.02 641.99,-277.57 645.77,-269.7 648.62,-262.17"/>
<polygon fill="black" stroke="black" points="652.2,-263.51 652.06,-252.92 645.56,-261.29 652.2,-263.51"/>
<text text-anchor="middle" x="738.11" y="-272.62" font-family="Times,serif" font-size="12.00">create PetMissing/PetSighted/PetFound</text>
</g>
<!-- SearchAPI -->
<g id="node8" class="node">
<title>SearchAPI</title>
<polygon fill="#f2f2f2" stroke="black" points="1102.98,-197.77 1035.23,-197.77 1035.23,-161.77 1102.98,-161.77 1102.98,-197.77"/>
<text text-anchor="middle" x="1069.11" y="-175.5" font-family="Times,serif" font-size="12.00">SearchAPI</text>
</g>
<!-- MobileApp&#45;&gt;SearchAPI -->
<g id="edge2" class="edge">
<title>MobileApp&#45;&gt;SearchAPI</title>
<path fill="none" stroke="black" stroke-dasharray="5,2" d="M657.06,-315.23C729.81,-308.28 847.4,-291.49 941.11,-251.77 973.26,-238.14 1007.79,-218.68 1032.86,-203.58"/>
<polygon fill="black" stroke="black" points="1034.27,-206.22 1040.99,-198.03 1030.63,-200.24 1034.27,-206.22"/>
<text text-anchor="middle" x="955.98" y="-272.62" font-family="Times,serif" font-size="12.00">list of PetMissing/PetSighted</text>
</g>
<!-- EntityManagementAPI -->
<g id="node9" class="node">
<title>EntityManagementAPI</title>
<polygon fill="#f2f2f2" stroke="black" points="585.86,-251.77 460.36,-251.77 460.36,-215.77 585.86,-215.77 585.86,-251.77"/>
<text text-anchor="middle" x="523.11" y="-229.5" font-family="Times,serif" font-size="12.00">EntityManagementAPI</text>
</g>
<!-- MobileApp&#45;&gt;EntityManagementAPI -->
<g id="edge3" class="edge">
<title>MobileApp&#45;&gt;EntityManagementAPI</title>
<path fill="none" stroke="black" d="M543.7,-305.25C534.33,-300.06 525.64,-293.14 520.11,-284.02 516.27,-277.7 515.36,-270.04 515.84,-262.67"/>
<polygon fill="black" stroke="black" points="519.43,-263.31 517.44,-252.9 512.51,-262.28 519.43,-263.31"/>
<text text-anchor="middle" x="578.61" y="-272.62" font-family="Times,serif" font-size="12.00">edit existing own entities</text>
</g>
<!-- Storage -->
<g id="node2" class="node">
<title>Storage</title>
<polygon fill="none" stroke="black" points="702.7,-127.62 646.11,-143.77 589.51,-127.62 589.56,-101.48 702.65,-101.48 702.7,-127.62"/>
<text text-anchor="middle" x="646.11" y="-114.57" font-family="Times,serif" font-size="16.00">Storage</text>
</g>
<!-- StorageReplica -->
<g id="node3" class="node">
<title>StorageReplica</title>
<polygon fill="none" stroke="black" points="940.65,-30.61 842.11,-46.76 743.56,-30.61 743.65,-4.47 940.56,-4.47 940.65,-30.61"/>
<text text-anchor="middle" x="842.11" y="-17.56" font-family="Times,serif" font-size="16.00">StorageReplica</text>
</g>
<!-- Storage&#45;&gt;StorageReplica -->
<g id="edge11" class="edge">
<title>Storage&#45;&gt;StorageReplica</title>
<path fill="none" stroke="black" d="M683.9,-101.07C716.3,-85.37 763.03,-62.71 797.3,-46.1"/>
<polygon fill="black" stroke="black" points="798.59,-48.88 806.06,-41.37 795.54,-42.58 798.59,-48.88"/>
<text text-anchor="middle" x="821.86" y="-67.61" font-family="Times,serif" font-size="12.00">replicate the primary storage</text>
</g>
<!-- ColdStorage -->
<g id="node4" class="node">
<title>ColdStorage</title>
<polygon fill="none" stroke="black" points="414.23,-127.62 330.11,-143.77 245.98,-127.62 246.06,-101.48 414.15,-101.48 414.23,-127.62"/>
<text text-anchor="middle" x="330.11" y="-114.57" font-family="Times,serif" font-size="16.00">ColdStorage</text>
</g>
<!-- SubmissionBuffer -->
<g id="node5" class="node">
<title>SubmissionBuffer</title>
<ellipse fill="none" stroke="black" cx="877.11" cy="-120.39" rx="94.05" ry="18.92"/>
<text text-anchor="middle" x="877.11" y="-114.57" font-family="Times,serif" font-size="16.00">SubmissionBuffer</text>
</g>
<!-- SubmissionAPI&#45;&gt;Storage -->
<g id="edge5" class="edge">
<title>SubmissionAPI&#45;&gt;Storage</title>
<path fill="none" stroke="black" stroke-dasharray="5,2" d="M650.63,-215.5C649.1,-209.9 647.65,-203.63 646.86,-197.77 644.96,-183.71 644.52,-168.05 644.64,-154.59"/>
<polygon fill="black" stroke="black" points="648.16,-154.96 644.87,-144.89 641.16,-154.81 648.16,-154.96"/>
<text text-anchor="middle" x="687.73" y="-175.5" font-family="Times,serif" font-size="12.00">check submission</text>
</g>
<!-- SubmissionAPI&#45;&gt;SubmissionBuffer -->
<g id="edge6" class="edge">
<title>SubmissionAPI&#45;&gt;SubmissionBuffer</title>
<path fill="none" stroke="black" d="M701.62,-216.16C711.67,-211.21 721.79,-205.1 730.11,-197.77 744.35,-185.22 738.09,-173.39 753.11,-161.77 766.82,-151.16 783.43,-143.28 799.98,-137.45"/>
<polygon fill="black" stroke="black" points="800.83,-140.53 809.24,-134.08 798.65,-133.88 800.83,-140.53"/>
<text text-anchor="middle" x="792.11" y="-175.5" font-family="Times,serif" font-size="12.00">store submission</text>
</g>
<!-- SubmissionAPI&#45;&gt;MediaAssetStorage -->
<g id="edge7" class="edge">
<title>SubmissionAPI&#45;&gt;MediaAssetStorage</title>
<path fill="none" stroke="black" d="M647.75,-215.48C638.47,-198.44 621.77,-173.34 599.11,-161.77 563.24,-143.46 277.11,-148.39 237.11,-143.77 224.56,-142.32 211.35,-140.38 198.45,-138.23"/>
<polygon fill="black" stroke="black" points="199.14,-134.63 188.69,-136.39 197.96,-141.53 199.14,-134.63"/>
</g>
<!-- SearchAPI&#45;&gt;StorageReplica -->
<g id="edge12" class="edge">
<title>SearchAPI&#45;&gt;StorageReplica</title>
<path fill="none" stroke="black" stroke-dasharray="5,2" d="M1052.84,-161.39C1035.8,-143.79 1007.72,-116.47 980.11,-97.01 951.72,-77.01 917.14,-58.82 889.7,-45.65"/>
<polygon fill="black" stroke="black" points="891.47,-42.14 880.93,-41.03 888.48,-48.47 891.47,-42.14"/>
<text text-anchor="middle" x="1065.11" y="-116.12" font-family="Times,serif" font-size="12.00">select entries</text>
</g>
<!-- EntityManagementAPI&#45;&gt;Storage -->
<g id="edge8" class="edge">
<title>EntityManagementAPI&#45;&gt;Storage</title>
<path fill="none" stroke="black" d="M532.86,-215.39C542.16,-199.92 557.32,-177.41 574.86,-161.77 583.95,-153.66 594.95,-146.45 605.56,-140.45"/>
<polygon fill="black" stroke="black" points="606.98,-143.12 614.12,-135.29 603.65,-136.96 606.98,-143.12"/>
<text text-anchor="middle" x="606.73" y="-175.5" font-family="Times,serif" font-size="12.00">update entries</text>
</g>
<!-- IndexerWorker -->
<g id="node10" class="node">
<title>IndexerWorker</title>
<polygon fill="#f2f2f2" stroke="black" points="932.36,-251.77 845.86,-251.77 845.86,-215.77 932.36,-215.77 932.36,-251.77"/>
<text text-anchor="middle" x="889.11" y="-229.5" font-family="Times,serif" font-size="12.00">IndexerWorker</text>
</g>
<!-- IndexerWorker&#45;&gt;Storage -->
<g id="edge10" class="edge">
<title>IndexerWorker&#45;&gt;Storage</title>
<path fill="none" stroke="black" d="M867.29,-215.45C861.38,-210.16 855.27,-204.06 850.36,-197.77 839.18,-183.48 845.58,-172.71 831.11,-161.77 821.03,-154.15 756.35,-141.12 706.27,-131.93"/>
<polygon fill="black" stroke="black" points="706.98,-128.32 696.51,-129.97 705.73,-135.2 706.98,-128.32"/>
<text text-anchor="middle" x="886.48" y="-175.5" font-family="Times,serif" font-size="12.00">store into index</text>
</g>
<!-- IndexerWorker&#45;&gt;SubmissionBuffer -->
<g id="edge9" class="edge">
<title>IndexerWorker&#45;&gt;SubmissionBuffer</title>
<path fill="none" stroke="black" d="M913.81,-215.58C919.19,-210.52 924.15,-204.51 927.11,-197.77 933.53,-183.12 934,-176.21 927.11,-161.77 924.23,-155.76 919.98,-150.35 915.15,-145.6"/>
<polygon fill="black" stroke="black" points="918.03,-142.6 908.19,-138.67 913.43,-147.88 918.03,-142.6"/>
<text text-anchor="middle" x="971.61" y="-175.5" font-family="Times,serif" font-size="12.00">fetch Submission</text>
</g>
<!-- ArchiverWorker -->
<g id="node11" class="node">
<title>ArchiverWorker</title>
<polygon fill="#f2f2f2" stroke="black" points="334.36,-251.77 241.86,-251.77 241.86,-215.77 334.36,-215.77 334.36,-251.77"/>
<text text-anchor="middle" x="288.11" y="-229.5" font-family="Times,serif" font-size="12.00">ArchiverWorker</text>
</g>
<!-- ArchiverWorker&#45;&gt;Storage -->
<g id="edge13" class="edge">
<title>ArchiverWorker&#45;&gt;Storage</title>
<path fill="none" stroke="black" d="M334.75,-220.05C353.08,-214.29 374.02,-206.75 392.11,-197.77 417.61,-185.11 418.85,-172.79 445.11,-161.77 487.64,-143.91 538.63,-133.79 578.61,-128.14"/>
<polygon fill="black" stroke="black" points="578.87,-131.5 588.32,-126.7 577.94,-124.57 578.87,-131.5"/>
<text text-anchor="middle" x="493.11" y="-175.5" font-family="Times,serif" font-size="12.00">fetch oldest partition</text>
</g>
<!-- ArchiverWorker&#45;&gt;ColdStorage -->
<g id="edge15" class="edge">
<title>ArchiverWorker&#45;&gt;ColdStorage</title>
<path fill="none" stroke="black" d="M284.87,-215.38C282.92,-200.52 282.04,-178.89 289.36,-161.77 291.55,-156.64 294.74,-151.81 298.38,-147.41"/>
<polygon fill="black" stroke="black" points="300.51,-150.19 304.79,-140.5 295.4,-145.4 300.51,-150.19"/>
<text text-anchor="middle" x="341.48" y="-175.5" font-family="Times,serif" font-size="12.00">store another partition</text>
</g>
<!-- ArchiverWorker&#45;&gt;MediaAssetStorage -->
<g id="edge14" class="edge">
<title>ArchiverWorker&#45;&gt;MediaAssetStorage</title>
<path fill="none" stroke="black" d="M241.56,-223.48C211.24,-216.75 175.04,-207.2 162.36,-197.77 146.87,-186.25 135.12,-168.16 127.1,-152.48"/>
<polygon fill="black" stroke="black" points="129.84,-151.11 122.36,-143.61 123.53,-154.14 129.84,-151.11"/>
<text text-anchor="middle" x="221.98" y="-175.5" font-family="Times,serif" font-size="12.00">remove associated media</text>
</g>
</g>
</svg>
